<svg width="128" height="128" viewBox="0 0 128 128" fill="none" xmlns="http://www.w3.org/2000/svg">
  <defs>
    <linearGradient id="g3bg" x1="0" y1="0" x2="128" y2="128" gradientUnits="userSpaceOnUse">
      <stop stop-color="#06b6d4" />
      <stop offset="1" stop-color="#0e7490" />
    </linearGradient>
  </defs>
  <circle cx="64" cy="64" r="64" fill="url(#g3bg)" />
  <path d="M28 116C28 98 44 86 64 86C84 86 100 98 100 116V128H28V116Z" fill="#164e63" />
  <rect x="54" y="74" width="20" height="14" fill="#fed7aa" />
  <circle cx="64" cy="56" r="22" fill="#fed7aa" />
  <!-- Hair Bun -->
  <circle cx="64" cy="28" r="10" fill="#3b0764" />
  <path d="M42 54C42 40 52 34 64 34C76 34 86 40 86 54V76H42V54Z" fill="#3b0764" />
  <circle cx="55" cy="56" r="2.5" fill="#1e293b" />
  <circle cx="73" cy="56" r="2.5" fill="#1e293b" />
  <path d="M58 66C58 68 70 68 70 66" stroke="#1e293b" stroke-width="2.5" stroke-linecap="round" />
</svg>
